<svg width="320" height="320" viewBox="0 0 320 320" fill="none" xmlns="http://www.w3.org/2000/svg">
  <defs>
    <linearGradient id="b1" x1="110" y1="78" x2="208" y2="230" gradientUnits="userSpaceOnUse">
      <stop stop-color="#9AF6FF"/>
      <stop offset="1" stop-color="#7B5CFF"/>
    </linearGradient>
    <linearGradient id="b2" x1="126" y1="116" x2="192" y2="202" gradientUnits="userSpaceOnUse">
      <stop stop-color="#FFD66B"/>
      <stop offset="1" stop-color="#FF78C8"/>
    </linearGradient>
    <radialGradient id="glow" cx="0" cy="0" r="1" gradientUnits="userSpaceOnUse" gradientTransform="translate(160 160) rotate(90) scale(120)">
      <stop stop-color="#7B5CFF" stop-opacity="0.55"/>
      <stop offset="1" stop-color="#7B5CFF" stop-opacity="0"/>
    </radialGradient>
  </defs>
  <circle cx="160" cy="160" r="118" fill="url(#glow)"/>
  <ellipse cx="160" cy="246" rx="66" ry="18" fill="#35E0FF" fill-opacity="0.25"/>
  <path d="M102 122C102 97.7 121.7 78 146 78H174C198.3 78 218 97.7 218 122V160C218 188.7 194.7 212 166 212H154C125.3 212 102 188.7 102 160V122Z" fill="#ECF3FF" stroke="url(#b1)" stroke-width="8"/>
  <rect x="128" y="112" width="64" height="38" rx="18" fill="#09152A" stroke="url(#b1)" stroke-width="6"/>
  <circle cx="146" cy="131" r="8" fill="#66F2FF"/>
  <circle cx="174" cy="131" r="8" fill="#66F2FF"/>
  <path d="M146 164C153.5 171 166.5 171 174 164" stroke="url(#b2)" stroke-width="6" stroke-linecap="round"/>
  <rect x="134" y="176" width="52" height="22" rx="10" fill="#112447" stroke="url(#b2)" stroke-width="5"/>
  <path d="M122 214L104 255" stroke="url(#b1)" stroke-width="10" stroke-linecap="round"/>
  <path d="M198 214L216 255" stroke="url(#b1)" stroke-width="10" stroke-linecap="round"/>
  <path d="M94 142L70 172" stroke="url(#b1)" stroke-width="10" stroke-linecap="round"/>
  <path d="M226 142L250 172" stroke="url(#b1)" stroke-width="10" stroke-linecap="round"/>
  <circle cx="66" cy="177" r="18" fill="#EEF4FF" stroke="url(#b1)" stroke-width="7"/>
  <circle cx="254" cy="177" r="18" fill="#EEF4FF" stroke="url(#b1)" stroke-width="7"/>
  <path d="M150 62H170" stroke="url(#b1)" stroke-width="8" stroke-linecap="round"/>
  <circle cx="160" cy="52" r="10" fill="url(#b2)"/>
  <path d="M150 258L140 282" stroke="url(#b2)" stroke-width="9" stroke-linecap="round"/>
  <path d="M170 258L180 282" stroke="url(#b2)" stroke-width="9" stroke-linecap="round"/>
</svg>
