<svg width="430" height="932" viewBox="0 0 430 932" fill="none" xmlns="http://www.w3.org/2000/svg">
<rect width="430" height="932" fill="#0E0920"/>
<g opacity="0.55">
<circle cx="372" cy="96" r="140" fill="#7B5CFF" fill-opacity="0.22"/>
<circle cx="54" cy="168" r="120" fill="#00E6FF" fill-opacity="0.12"/>
<circle cx="326" cy="772" r="160" fill="#FF4FA0" fill-opacity="0.16"/>
<circle cx="120" cy="820" r="120" fill="#FFD86B" fill-opacity="0.08"/>
</g>
<g opacity="0.18" stroke="#8D78FF">
<path d="M28 120H150L188 82H292" stroke-width="2"/>
<path d="M430 220H302L272 250H174L142 282H0" stroke-width="2"/>
<path d="M430 610H286L236 560H124L76 608H0" stroke-width="2"/>
<path d="M56 420H130L172 378H260L298 340H390" stroke-width="2"/>
</g>
<g opacity="0.36">
<circle cx="150" cy="120" r="6" fill="#59F0FF"/>
<circle cx="292" cy="82" r="7" fill="#B56DFF"/>
<circle cx="272" cy="250" r="7" fill="#FF5DA9"/>
<circle cx="142" cy="282" r="6" fill="#FFE66D"/>
<circle cx="236" cy="560" r="7" fill="#7AFFC5"/>
<circle cx="76" cy="608" r="6" fill="#FFB84D"/>
<circle cx="298" cy="340" r="7" fill="#59F0FF"/>
</g>
</svg>
